<svg id="Layer_1" data-name="Layer 1" xmlns="http://www.w3.org/2000/svg" viewBox="0 0 1200 1200"><path d="M623.61,613.9v2.45l-.32-.39a2,2,0,0,0-1.93-.79,2.31,2.31,0,0,0-2.15.91,5.71,5.71,0,0,0,.07,6.61,2.72,2.72,0,0,0,4.08.09l.32-.36V623l0,.55h1.86V611.45h-1.89Zm-.59,3.38a3.13,3.13,0,0,1,.6,2.25c0,1.77-.91,2.76-2.2,2.42-.89-.23-1.36-1.11-1.37-2.53a3.08,3.08,0,0,1,.51-2c.39-.48.6-.56,1.4-.52C622.6,616.88,622.7,616.92,623,617.28Z"/><path d="M575.5,617.67v5.85h1.78l0-3.95,0-4,2.66,4,2.65,3.95h1.46v-11.7h-1.79l0,4,0,4-2.66-4-2.66-4H575.5Z"/><path d="M588.76,615.27a3.12,3.12,0,0,0-1.44,1,5.08,5.08,0,0,0-.94,3.9,3.82,3.82,0,0,0,1.91,3.08,2.65,2.65,0,0,0,1.68.32,2.92,2.92,0,0,0,1.65-.29,4.19,4.19,0,0,0,1.75-2.22,7,7,0,0,0,0-3.38,4.18,4.18,0,0,0-1.76-2.22A4.7,4.7,0,0,0,588.76,615.27Zm2,1.67c.2,0,.73.81.83,1.29a5.77,5.77,0,0,1-.17,2.84A1.55,1.55,0,0,1,590,622c-1.19,0-1.77-.83-1.77-2.48a3,3,0,0,1,.54-2.17,1.59,1.59,0,0,1,1.61-.49C590.56,616.89,590.78,616.92,590.81,616.94Z"/><path d="M598.61,615.35a2.22,2.22,0,0,0-1,.9l-.23.36v-.42c0-.92,0-1-1-1h-.84l.06.69c0,.39.06,2.26.07,4.15v3.45h1.76l0-2.72c0-2.88.08-3.12.6-3.67a1.72,1.72,0,0,1,1.57-.19c.48.28.54.75.54,3.78v2.8h1.88v-2.66c0-2.34,0-2.7.2-3.16a1.27,1.27,0,0,1,1.31-.89c.63,0,1,.36,1.09,1.1,0,.31.09,1.68.08,3.07v2.54h1.83v-2.84a19.57,19.57,0,0,0-.16-3.56c-.31-1.39-1-2-2.26-2a2.51,2.51,0,0,0-2.06,1c-.31.43-.44.52-.44.25s-.76-1-1.15-1.18A2.74,2.74,0,0,0,598.61,615.35Z"/><path d="M610.9,615.28A3.76,3.76,0,0,0,609,617.7a8,8,0,0,0,0,3.44,3.11,3.11,0,0,0,2.95,2.5,2.55,2.55,0,0,0,2-.86l.31-.36V623l0,.55h1.86v-8.29h-1.86l0,.39c0,.63-.05.74-.27.41a3.19,3.19,0,0,0-.75-.61A2.9,2.9,0,0,0,610.9,615.28Zm2.26,1.64c.68.31,1,1.16,1,2.49,0,1.73-.61,2.6-1.8,2.57s-1.77-.84-1.77-2.56.6-2.61,1.74-2.61A2.59,2.59,0,0,1,613.16,616.92Z"/><path d="M596.5,635.16a54.64,54.64,0,0,0-3.25,4.62c0,.16,7.13,10.67,7.2,10.67s7.16-10.51,7.2-10.68a24.23,24.23,0,0,0-1.68-2.49l-1.71-2.36H600.5C596.87,634.92,596.73,634.93,596.5,635.16Zm2,2.5-.77,1.34h-2.48l.46-.64c.25-.35.68-1,1-1.34l.5-.7h2.07Zm5.6-.71c.25.36.68,1,1,1.35l.5.7h-2.48l-.61-1.07c-.33-.59-.68-1.18-.77-1.34l-.16-.27h2.1Zm-3.07,1,.53,1-.58,0a11,11,0,0,1-1.15,0l-.58,0,.54-1a5.69,5.69,0,0,1,.62-.94A6.52,6.52,0,0,1,601.07,638Zm-3.25,3.29c.11.47.39,1.62.64,2.6s.45,1.84.47,1.91c.08.3,0,.16-.74-.91-.39-.59-1.23-1.82-1.85-2.74l-1.13-1.67h2.4Zm3.43,2.14c-.39,1.63-.75,3-.79,3a28.35,28.35,0,0,1-.81-3l-.74-3H602Zm4.33-2.88s-.76,1.21-1.69,2.58-1.77,2.6-1.84,2.7-.1.11,0-.23c.31-1.32,1.17-4.84,1.21-5s.36-.14,1.2-.14A4.74,4.74,0,0,1,605.58,640.54Z"/></svg>