<?xml version="1.0" standalone="no"?>
<!DOCTYPE svg PUBLIC "-//W3C//DTD SVG 20010904//EN"
 "http://www.w3.org/TR/2001/REC-SVG-20010904/DTD/svg10.dtd">
<svg version="1.0" xmlns="http://www.w3.org/2000/svg"
 width="1200.000000pt" height="1200.000000pt" viewBox="0 0 1200.000000 1200.000000"
 preserveAspectRatio="xMidYMid meet">

<g transform="translate(0.000000,1200.000000) scale(0.100000,-0.100000)"
fill="#000000" stroke="none">
<path d="M8210 7089 l0 -201 -31 32 c-54 54 -85 65 -184 65 -103 0 -146 -16
-205 -75 -133 -133 -129 -411 7 -542 106 -103 286 -106 389 -7 l30 29 -1 -45
-2 -45 89 0 88 0 0 495 0 495 -90 0 -90 0 0 -201z m-57 -277 c42 -41 59 -95
58 -185 -1 -145 -87 -226 -210 -198 -85 19 -130 91 -131 207 0 84 13 128 49
168 37 40 57 46 133 43 61 -2 71 -6 101 -35z"/>
<path d="M3620 6780 l0 -480 85 0 85 0 2 324 3 324 253 -324 253 -324 70 0 69
0 0 480 0 480 -85 0 -85 0 -2 -331 -3 -332 -254 332 -254 331 -69 0 -68 0 0
-480z"/>
<path d="M4885 6977 c-62 -21 -97 -42 -137 -83 -75 -75 -110 -199 -90 -320 20
-122 79 -204 182 -253 48 -23 67 -26 160 -26 89 0 113 4 158 24 68 31 141 110
167 182 26 71 27 203 1 277 -24 70 -100 152 -168 182 -65 29 -210 37 -273 17z
m196 -137 c19 -1 69 -67 79 -106 18 -62 9 -191 -16 -233 -30 -50 -79 -76 -145
-75 -114 2 -169 68 -169 204 0 96 12 138 51 178 35 36 94 52 154 40 22 -4 43
-7 46 -8z"/>
<path d="M5825 6970 c-47 -22 -63 -35 -93 -74 l-22 -29 0 34 c0 76 -4 79 -92
79 l-80 0 5 -57 c4 -32 6 -185 7 -340 l0 -283 84 0 84 0 4 223 c3 236 7 256
57 301 26 24 118 34 150 16 45 -23 51 -62 51 -310 l0 -230 90 0 90 0 0 218 c0
192 3 222 19 259 23 50 62 73 125 73 60 0 93 -29 104 -90 4 -25 8 -138 7 -252
l0 -208 87 0 88 0 0 233 c0 177 -4 247 -15 292 -30 114 -96 164 -216 165 -78
0 -155 -33 -197 -86 -29 -36 -42 -43 -42 -21 0 23 -72 86 -109 97 -58 16 -142
12 -186 -10z"/>
<path d="M6997 6976 c-81 -29 -152 -106 -184 -199 -24 -70 -24 -214 0 -282 45
-129 149 -205 281 -205 81 0 142 23 192 71 l30 29 -1 -45 -2 -45 89 0 88 0 0
340 0 340 -89 0 -88 0 2 -32 c2 -52 -5 -61 -26 -34 -11 13 -42 36 -71 50 -60
30 -156 35 -221 12z m216 -135 c65 -25 98 -95 98 -204 0 -142 -58 -213 -172
-211 -115 2 -169 69 -169 210 0 139 58 214 166 214 29 0 64 -4 77 -9z"/>
<path d="M5623 5345 c-43 -39 -313 -369 -310 -379 4 -13 681 -875 687 -875 6
0 683 862 687 876 2 5 -70 97 -160 204 l-163 194 -359 0 c-346 0 -360 -1 -382
-20z m195 -205 l-73 -110 -119 0 -118 0 44 53 c24 28 65 78 92 110 l48 57 99
0 99 0 -72 -110z m534 58 c24 -29 65 -79 92 -110 l48 -58 -118 0 -119 0 -58
88 c-32 48 -65 97 -74 110 l-15 22 100 0 100 0 44 -52z m-293 -85 l51 -78 -55
-3 c-30 -2 -80 -2 -110 0 l-55 3 51 78 c29 42 55 77 59 77 4 0 30 -35 59 -77z
m-310 -270 c11 -38 38 -133 61 -213 22 -80 43 -151 45 -157 8 -24 -2 -13 -70
75 -38 48 -118 149 -177 225 l-108 137 114 0 115 0 20 -67z m328 -175 c-38
-134 -72 -246 -76 -250 -3 -4 -38 105 -77 243 l-71 249 147 0 146 0 -69 -242z
m413 236 c0 -3 -73 -99 -162 -212 -90 -113 -168 -213 -175 -221 -10 -13 -10
-9 -3 19 30 108 112 397 115 408 3 8 35 12 115 12 60 0 110 -3 110 -6z"/>
</g>
</svg>
